<svg xmlns="http://www.w3.org/2000/svg"  viewBox="0 0 24 24" width="48px" height="48px">
    <path fill="currentColor" d="M14.5,2C10.358,2,7,5.358,7,9.5c0,4.142,3.358,7.5,7.5,7.5S22,13.642,22,9.5	C22,5.358,18.642,2,14.5,2z M17,9c-1.105,0-2-0.895-2-2c0-1.105,0.895-2,2-2s2,0.895,2,2C19,8.105,18.105,9,17,9z" opacity=".35"/>
    <path fill="currentColor" d="M7.587,12.413l-5.294,5.294C2.105,17.895,2,18.149,2,18.414V21c0,0.552,0.448,1,1,1h2.586c0.265,0,0.52-0.105,0.707-0.293	l1.293-1.293C7.851,20.149,8,19.789,8,19.414C8,18.633,8.633,18,9.414,18c0.375,0,0.735-0.149,1-0.414l1.173-1.173	C9.787,15.654,8.346,14.212,7.587,12.413z"/>
</svg>